<svg width="25" height="25" viewBox="0 0 25 25" fill="none" xmlns="http://www.w3.org/2000/svg">
<path d="M1.56507 11.5651C2.27885 10.8513 3.41277 10.8137 4.17077 11.4524L4.29349 11.5651L14.4349 21.7065C15.1884 22.4599 15.1884 23.6815 14.4349 24.4349C13.7211 25.1487 12.5872 25.1863 11.8292 24.5476L11.7065 24.4349L1.56507 14.2935C0.811642 13.5401 0.811642 12.3185 1.56507 11.5651Z" fill="#444444"/>
<path d="M22.1895 0.480261C23.1961 -0.515504 24.8963 0.139708 24.9955 1.50572L25 1.63183V12.3682C25 13.2676 24.2629 13.9967 23.3536 13.9967C22.4857 13.9967 21.7746 13.3324 21.7118 12.4897L21.7073 12.3682L21.707 5.56306L13.6642 13.5197C12.6575 14.5155 10.9573 13.8603 10.8582 12.4943L10.8536 12.3682L10.8533 5.56306L2.81051 13.5197C2.20141 14.1223 1.23377 14.154 0.586929 13.6149L0.482208 13.5197C-0.126897 12.9172 -0.158955 11.96 0.386034 11.3202L0.482208 11.2166L11.3358 0.480261C12.3425 -0.515504 14.0427 0.139708 14.1418 1.50572L14.1464 1.63183L14.1461 8.43585L22.1895 0.480261Z" fill="white"/>
</svg>
